<?xml version="1.0" encoding="UTF-8"?>
<svg width="349" height="296" viewBox="0 0 349 296" fill="none" xmlns="http://www.w3.org/2000/svg">
<path d="M101.319 188.64L101.117 189.098C101.351 189.201 101.624 189.111 101.752 188.891L101.319 188.64ZM3.30643 146.017C3.55915 146.128 3.85425 146.013 3.96556 145.761C4.07687 145.508 3.96223 145.213 3.70952 145.102L3.30643 146.017ZM8.72547 147.311C8.47275 147.2 8.17765 147.314 8.06634 147.567C7.95504 147.82 8.06967 148.115 8.32238 148.226L8.72547 147.311ZM13.3383 150.435C13.591 150.547 13.8861 150.432 13.9975 150.179C14.1088 149.927 13.9941 149.632 13.7414 149.52L13.3383 150.435ZM18.7574 151.73C18.5047 151.618 18.2096 151.733 18.0982 151.986C17.9869 152.238 18.1016 152.533 18.3543 152.645L18.7574 151.73ZM23.3702 154.854C23.6229 154.965 23.918 154.851 24.0294 154.598C24.1407 154.345 24.026 154.05 23.7733 153.939L23.3702 154.854ZM28.7893 156.148C28.5366 156.037 28.2415 156.151 28.1301 156.404C28.0188 156.657 28.1335 156.952 28.3862 157.063L28.7893 156.148ZM33.4021 159.273C33.6549 159.384 33.95 159.269 34.0613 159.016C34.1726 158.764 34.0579 158.469 33.8052 158.357L33.4021 159.273ZM38.8212 160.567C38.5685 160.455 38.2734 160.57 38.162 160.823C38.0507 161.075 38.1654 161.37 38.4181 161.482L38.8212 160.567ZM43.434 163.691C43.6868 163.802 43.9819 163.688 44.0932 163.435C44.2045 163.182 44.0898 162.887 43.8371 162.776L43.434 163.691ZM48.8531 164.985C48.6004 164.874 48.3053 164.989 48.1939 165.241C48.0826 165.494 48.1973 165.789 48.45 165.9L48.8531 164.985ZM53.4659 168.11C53.7187 168.221 54.0138 168.106 54.1251 167.854C54.2364 167.601 54.1217 167.306 53.869 167.194L53.4659 168.11ZM58.885 169.404C58.6323 169.292 58.3372 169.407 58.2258 169.66C58.1145 169.913 58.2292 170.208 58.4819 170.319L58.885 169.404ZM63.4978 172.528C63.7506 172.64 64.0457 172.525 64.157 172.272C64.2683 172.019 64.1536 171.724 63.9009 171.613L63.4978 172.528ZM68.9169 173.822C68.6642 173.711 68.3691 173.826 68.2577 174.078C68.1464 174.331 68.2611 174.626 68.5138 174.737L68.9169 173.822ZM73.5297 176.947C73.7825 177.058 74.0776 176.943 74.1889 176.691C74.3002 176.438 74.1855 176.143 73.9328 176.032L73.5297 176.947ZM78.9488 178.241C78.6961 178.13 78.401 178.244 78.2897 178.497C78.1783 178.75 78.293 179.045 78.5457 179.156L78.9488 178.241ZM83.5616 181.365C83.8144 181.477 84.1095 181.362 84.2208 181.109C84.3321 180.857 84.2174 180.561 83.9647 180.45L83.5616 181.365ZM88.9807 182.659C88.728 182.548 88.4329 182.663 88.3216 182.915C88.2103 183.168 88.3249 183.463 88.5776 183.575L88.9807 182.659ZM93.5936 185.784C93.8463 185.895 94.1414 185.781 94.2527 185.528C94.364 185.275 94.2494 184.98 93.9966 184.869L93.5936 185.784ZM99.0126 187.078C98.7599 186.967 98.4648 187.081 98.3535 187.334C98.2422 187.587 98.3568 187.882 98.6095 187.993L99.0126 187.078ZM103.152 186.469C103.291 186.23 103.209 185.924 102.97 185.786C102.731 185.648 102.425 185.729 102.287 185.968L103.152 186.469ZM105.088 181.125C104.949 181.364 105.031 181.67 105.27 181.808C105.509 181.947 105.815 181.865 105.953 181.626L105.088 181.125ZM108.754 176.783C108.892 176.544 108.811 176.238 108.572 176.1C108.333 175.961 108.027 176.043 107.888 176.282L108.754 176.783ZM110.689 171.439C110.551 171.678 110.633 171.984 110.872 172.122C111.111 172.261 111.417 172.179 111.555 171.94L110.689 171.439ZM114.356 167.097C114.494 166.858 114.412 166.552 114.173 166.414C113.934 166.275 113.628 166.357 113.49 166.596L114.356 167.097ZM116.291 161.753C116.153 161.992 116.235 162.298 116.474 162.436C116.713 162.574 117.018 162.493 117.157 162.254L116.291 161.753ZM119.958 157.411C120.096 157.172 120.014 156.866 119.775 156.727C119.536 156.589 119.23 156.671 119.092 156.91L119.958 157.411ZM121.893 152.067C121.755 152.306 121.836 152.612 122.075 152.75C122.314 152.888 122.62 152.807 122.759 152.568L121.893 152.067ZM125.559 147.724C125.698 147.485 125.616 147.18 125.377 147.041C125.138 146.903 124.832 146.985 124.694 147.224L125.559 147.724ZM127.495 142.381C127.356 142.62 127.438 142.926 127.677 143.064C127.916 143.202 128.222 143.12 128.36 142.881L127.495 142.381ZM131.161 138.038C131.299 137.799 131.218 137.493 130.979 137.355C130.74 137.217 130.434 137.299 130.296 137.538L131.161 138.038ZM133.096 132.695C132.958 132.934 133.04 133.24 133.279 133.378C133.518 133.516 133.824 133.434 133.962 133.195L133.096 132.695ZM136.763 128.352C136.901 128.113 136.82 127.807 136.58 127.669C136.341 127.531 136.036 127.613 135.897 127.852L136.763 128.352ZM138.698 123.008C138.56 123.248 138.642 123.553 138.881 123.692C139.12 123.83 139.426 123.748 139.564 123.509L138.698 123.008ZM142.365 118.666C142.503 118.427 142.421 118.121 142.182 117.983C141.943 117.845 141.637 117.926 141.499 118.165L142.365 118.666ZM144.3 113.322C144.162 113.561 144.243 113.867 144.483 114.006C144.722 114.144 145.027 114.062 145.166 113.823L144.3 113.322ZM147.967 108.98C148.105 108.741 148.023 108.435 147.784 108.297C147.545 108.159 147.239 108.24 147.101 108.479L147.967 108.98ZM149.902 103.636C149.764 103.875 149.845 104.181 150.084 104.319C150.323 104.458 150.629 104.376 150.767 104.137L149.902 103.636ZM153.568 99.2938C153.707 99.0548 153.625 98.7489 153.386 98.6107C153.147 98.4724 152.841 98.5541 152.703 98.7932L153.568 99.2938ZM155.504 93.9501C155.365 94.1891 155.447 94.495 155.686 94.6332C155.925 94.7715 156.231 94.6898 156.369 94.4507L155.504 93.9501ZM159.17 89.6077C159.308 89.3686 159.227 89.0628 158.988 88.9245C158.749 88.7863 158.443 88.868 158.304 89.107L159.17 89.6077ZM161.105 84.264C160.967 84.503 161.049 84.8089 161.288 84.9471C161.527 85.0854 161.833 85.0036 161.971 84.7646L161.105 84.264ZM164.772 79.9215C164.91 79.6825 164.828 79.3766 164.589 79.2384C164.35 79.1001 164.044 79.1819 163.906 79.4209L164.772 79.9215ZM166.707 74.5778C166.569 74.8169 166.651 75.1227 166.89 75.261C167.129 75.3992 167.435 75.3175 167.573 75.0785L166.707 74.5778ZM170.374 70.2354C170.512 69.9964 170.43 69.6905 170.191 69.5523C169.952 69.414 169.646 69.4957 169.508 69.7348L170.374 70.2354ZM172.309 64.8917C172.171 65.1307 172.252 65.4366 172.491 65.5748C172.73 65.7131 173.036 65.6314 173.175 65.3923L172.309 64.8917ZM0.798458 144.912L3.30643 146.017L3.70952 145.102L1.20154 143.997L0.798458 144.912ZM8.32238 148.226L13.3383 150.435L13.7414 149.52L8.72547 147.311L8.32238 148.226ZM18.3543 152.645L23.3702 154.854L23.7733 153.939L18.7574 151.73L18.3543 152.645ZM28.3862 157.063L33.4021 159.273L33.8052 158.357L28.7893 156.148L28.3862 157.063ZM38.4181 161.482L43.434 163.691L43.8371 162.776L38.8212 160.567L38.4181 161.482ZM48.45 165.9L53.4659 168.11L53.869 167.194L48.8531 164.985L48.45 165.9ZM58.4819 170.319L63.4978 172.528L63.9009 171.613L58.885 169.404L58.4819 170.319ZM68.5138 174.737L73.5297 176.947L73.9328 176.032L68.9169 173.822L68.5138 174.737ZM78.5457 179.156L83.5616 181.365L83.9647 180.45L78.9488 178.241L78.5457 179.156ZM88.5776 183.575L93.5936 185.784L93.9966 184.869L88.9807 182.659L88.5776 183.575ZM98.6095 187.993L101.117 189.098L101.521 188.183L99.0126 187.078L98.6095 187.993ZM101.752 188.891L103.152 186.469L102.287 185.968L100.886 188.39L101.752 188.891ZM105.953 181.626L108.754 176.783L107.888 176.282L105.088 181.125L105.953 181.626ZM111.555 171.94L114.356 167.097L113.49 166.596L110.689 171.439L111.555 171.94ZM117.157 162.254L119.958 157.411L119.092 156.91L116.291 161.753L117.157 162.254ZM122.759 152.568L125.559 147.724L124.694 147.224L121.893 152.067L122.759 152.568ZM128.36 142.881L131.161 138.038L130.296 137.538L127.495 142.381L128.36 142.881ZM133.962 133.195L136.763 128.352L135.897 127.852L133.096 132.695L133.962 133.195ZM139.564 123.509L142.365 118.666L141.499 118.165L138.698 123.008L139.564 123.509ZM145.166 113.823L147.967 108.98L147.101 108.479L144.3 113.322L145.166 113.823ZM150.767 104.137L153.568 99.2938L152.703 98.7932L149.902 103.636L150.767 104.137ZM156.369 94.4507L159.17 89.6077L158.304 89.107L155.504 93.9501L156.369 94.4507ZM161.971 84.7646L164.772 79.9215L163.906 79.4209L161.105 84.264L161.971 84.7646ZM167.573 75.0785L170.374 70.2354L169.508 69.7348L166.707 74.5778L167.573 75.0785ZM173.175 65.3923L174.575 62.9708L173.709 62.4701L172.309 64.8917L173.175 65.3923Z" fill="url(#paint0_linear_103_2)"/>
<path d="M104.12 189.14C104.396 189.14 104.62 188.916 104.62 188.64C104.62 188.364 104.396 188.14 104.12 188.14V189.14ZM109.722 188.14C109.446 188.14 109.222 188.364 109.222 188.64C109.222 188.916 109.446 189.14 109.722 189.14V188.14ZM115.323 189.14C115.6 189.14 115.823 188.916 115.823 188.64C115.823 188.364 115.6 188.14 115.323 188.14V189.14ZM120.925 188.14C120.649 188.14 120.425 188.364 120.425 188.64C120.425 188.916 120.649 189.14 120.925 189.14V188.14ZM126.527 189.14C126.803 189.14 127.027 188.916 127.027 188.64C127.027 188.364 126.803 188.14 126.527 188.14V189.14ZM132.129 188.14C131.853 188.14 131.629 188.364 131.629 188.64C131.629 188.916 131.853 189.14 132.129 189.14V188.14ZM137.731 189.14C138.007 189.14 138.231 188.916 138.231 188.64C138.231 188.364 138.007 188.14 137.731 188.14V189.14ZM143.332 188.14C143.056 188.14 142.832 188.364 142.832 188.64C142.832 188.916 143.056 189.14 143.332 189.14V188.14ZM148.934 189.14C149.21 189.14 149.434 188.916 149.434 188.64C149.434 188.364 149.21 188.14 148.934 188.14V189.14ZM154.536 188.14C154.26 188.14 154.036 188.364 154.036 188.64C154.036 188.916 154.26 189.14 154.536 189.14V188.14ZM160.138 189.14C160.414 189.14 160.638 188.916 160.638 188.64C160.638 188.364 160.414 188.14 160.138 188.14V189.14ZM165.74 188.14C165.463 188.14 165.24 188.364 165.24 188.64C165.24 188.916 165.463 189.14 165.74 189.14V188.14ZM171.341 189.14C171.617 189.14 171.841 188.916 171.841 188.64C171.841 188.364 171.617 188.14 171.341 188.14V189.14ZM176.943 188.14C176.667 188.14 176.443 188.364 176.443 188.64C176.443 188.916 176.667 189.14 176.943 189.14V188.14ZM182.545 189.14C182.821 189.14 183.045 188.916 183.045 188.64C183.045 188.364 182.821 188.14 182.545 188.14V189.14ZM188.147 188.14C187.871 188.14 187.647 188.364 187.647 188.64C187.647 188.916 187.871 189.14 188.147 189.14V188.14ZM193.748 189.14C194.025 189.14 194.248 188.916 194.248 188.64C194.248 188.364 194.025 188.14 193.748 188.14V189.14ZM199.35 188.14C199.074 188.14 198.85 188.364 198.85 188.64C198.85 188.916 199.074 189.14 199.35 189.14V188.14ZM204.952 189.14C205.228 189.14 205.452 188.916 205.452 188.64C205.452 188.364 205.228 188.14 204.952 188.14V189.14ZM210.554 188.14C210.278 188.14 210.054 188.364 210.054 188.64C210.054 188.916 210.278 189.14 210.554 189.14V188.14ZM216.156 189.14C216.432 189.14 216.656 188.916 216.656 188.64C216.656 188.364 216.432 188.14 216.156 188.14V189.14ZM221.757 188.14C221.481 188.14 221.257 188.364 221.257 188.64C221.257 188.916 221.481 189.14 221.757 189.14V188.14ZM227.359 189.14C227.635 189.14 227.859 188.916 227.859 188.64C227.859 188.364 227.635 188.14 227.359 188.14V189.14ZM232.961 188.14C232.685 188.14 232.461 188.364 232.461 188.64C232.461 188.916 232.685 189.14 232.961 189.14V188.14ZM238.563 189.14C238.839 189.14 239.063 188.916 239.063 188.64C239.063 188.364 238.839 188.14 238.563 188.14V189.14ZM244.165 188.14C243.888 188.14 243.665 188.364 243.665 188.64C243.665 188.916 243.888 189.14 244.165 189.14V188.14ZM101.319 189.14H104.12V188.14H101.319V189.14ZM109.722 189.14H115.323V188.14H109.722V189.14ZM120.925 189.14H126.527V188.14H120.925V189.14ZM132.129 189.14H137.731V188.14H132.129V189.14ZM143.332 189.14H148.934V188.14H143.332V189.14ZM154.536 189.14H160.138V188.14H154.536V189.14ZM165.74 189.14H171.341V188.14H165.74V189.14ZM176.943 189.14H182.545V188.14H176.943V189.14ZM188.147 189.14H193.748V188.14H188.147V189.14ZM199.35 189.14H204.952V188.14H199.35V189.14ZM210.554 189.14H216.156V188.14H210.554V189.14ZM221.757 189.14H227.359V188.14H221.757V189.14ZM232.961 189.14H238.563V188.14H232.961V189.14ZM244.165 189.14H246.965V188.14H244.165V189.14Z" fill="url(#paint1_linear_103_2)"/>
<path d="M174.142 62.7205L173.833 63.1137C174.015 63.256 174.27 63.256 174.451 63.1137L174.142 62.7205ZM89.7329 -2.91371C89.9501 -2.74319 90.2644 -2.78103 90.435 -2.99823C90.6055 -3.21543 90.5676 -3.52974 90.3504 -3.70026L89.7329 -2.91371ZM94.6633 -0.314241C94.4461 -0.484766 94.1318 -0.446927 93.9613 -0.229727C93.7907 -0.0125261 93.8286 0.301787 94.0458 0.472311L94.6633 -0.314241ZM98.3586 3.85833C98.5758 4.02886 98.8901 3.99102 99.0607 3.77382C99.2312 3.55662 99.1933 3.24231 98.9761 3.07178L98.3586 3.85833ZM103.289 6.4578C103.072 6.28728 102.757 6.32512 102.587 6.54232C102.416 6.75952 102.454 7.07383 102.671 7.24436L103.289 6.4578ZM106.984 10.6304C107.202 10.8009 107.516 10.7631 107.686 10.5459C107.857 10.3287 107.819 10.0144 107.602 9.84383L106.984 10.6304ZM111.915 13.2299C111.697 13.0593 111.383 13.0972 111.213 13.3144C111.042 13.5316 111.08 13.8459 111.297 14.0164L111.915 13.2299ZM115.61 17.4024C115.827 17.573 116.142 17.5351 116.312 17.3179C116.483 17.1007 116.445 16.7864 116.228 16.6159L115.61 17.4024ZM120.54 20.0019C120.323 19.8314 120.009 19.8692 119.838 20.0864C119.668 20.3036 119.706 20.6179 119.923 20.7885L120.54 20.0019ZM124.236 24.1745C124.453 24.345 124.767 24.3072 124.938 24.09C125.108 23.8728 125.07 23.5584 124.853 23.3879L124.236 24.1745ZM129.166 26.7739C128.949 26.6034 128.635 26.6413 128.464 26.8585C128.294 27.0757 128.331 27.39 128.549 27.5605L129.166 26.7739ZM132.861 30.9465C133.079 31.117 133.393 31.0792 133.563 30.862C133.734 30.6448 133.696 30.3305 133.479 30.16L132.861 30.9465ZM137.792 33.546C137.575 33.3755 137.26 33.4133 137.09 33.6305C136.919 33.8477 136.957 34.162 137.174 34.3325L137.792 33.546ZM141.487 37.7186C141.704 37.8891 142.019 37.8513 142.189 37.6341C142.36 37.4169 142.322 37.1025 142.105 36.932L141.487 37.7186ZM146.417 40.318C146.2 40.1475 145.886 40.1854 145.715 40.4026C145.545 40.6198 145.583 40.9341 145.8 41.1046L146.417 40.318ZM150.113 44.4906C150.33 44.6611 150.644 44.6233 150.815 44.4061C150.985 44.1889 150.948 43.8746 150.73 43.7041L150.113 44.4906ZM155.043 47.0901C154.826 46.9196 154.512 46.9574 154.341 47.1746C154.171 47.3918 154.208 47.7061 154.426 47.8766L155.043 47.0901ZM158.738 51.2627C158.956 51.4332 159.27 51.3953 159.441 51.1781C159.611 50.9609 159.573 50.6466 159.356 50.4761L158.738 51.2627ZM163.669 53.8621C163.452 53.6916 163.137 53.7294 162.967 53.9466C162.796 54.1638 162.834 54.4782 163.051 54.6487L163.669 53.8621ZM167.364 58.0347C167.581 58.2052 167.896 58.1674 168.066 57.9502C168.237 57.733 168.199 57.4187 167.982 57.2482L167.364 58.0347ZM172.295 60.6342C172.077 60.4637 171.763 60.5015 171.593 60.7187C171.422 60.9359 171.46 61.2502 171.677 61.4207L172.295 60.6342ZM176.607 61.4207C176.825 61.2502 176.862 60.9359 176.692 60.7187C176.521 60.5015 176.207 60.4637 175.99 60.6342L176.607 61.4207ZM180.303 57.2482C180.086 57.4187 180.048 57.733 180.218 57.9502C180.389 58.1674 180.703 58.2052 180.92 58.0347L180.303 57.2482ZM185.233 54.6487C185.45 54.4782 185.488 54.1638 185.318 53.9466C185.147 53.7294 184.833 53.6916 184.616 53.8621L185.233 54.6487ZM188.928 50.4761C188.711 50.6466 188.673 50.9609 188.844 51.1781C189.014 51.3953 189.329 51.4332 189.546 51.2627L188.928 50.4761ZM193.859 47.8766C194.076 47.7061 194.114 47.3918 193.943 47.1746C193.773 46.9574 193.458 46.9196 193.241 47.0901L193.859 47.8766ZM197.554 43.7041C197.337 43.8746 197.299 44.1889 197.47 44.4061C197.64 44.6233 197.954 44.6611 198.172 44.4906L197.554 43.7041ZM202.485 41.1046C202.702 40.9341 202.74 40.6198 202.569 40.4026C202.399 40.1854 202.084 40.1475 201.867 40.318L202.485 41.1046ZM206.18 36.932C205.963 37.1025 205.925 37.4169 206.095 37.6341C206.266 37.8513 206.58 37.8891 206.797 37.7186L206.18 36.932ZM211.11 34.3325C211.327 34.162 211.365 33.8477 211.195 33.6305C211.024 33.4133 210.71 33.3755 210.493 33.546L211.11 34.3325ZM214.806 30.16C214.588 30.3305 214.55 30.6448 214.721 30.862C214.892 31.0792 215.206 31.117 215.423 30.9465L214.806 30.16ZM219.736 27.5605C219.953 27.39 219.991 27.0757 219.82 26.8585C219.65 26.6413 219.336 26.6034 219.118 26.7739L219.736 27.5605ZM223.431 23.3879C223.214 23.5584 223.176 23.8728 223.347 24.09C223.517 24.3072 223.832 24.345 224.049 24.1745L223.431 23.3879ZM228.362 20.7885C228.579 20.6179 228.617 20.3036 228.446 20.0864C228.276 19.8692 227.961 19.8314 227.744 20.0019L228.362 20.7885ZM232.057 16.6159C231.84 16.7864 231.802 17.1007 231.972 17.3179C232.143 17.5351 232.457 17.573 232.674 17.4024L232.057 16.6159ZM236.987 14.0164C237.205 13.8459 237.242 13.5316 237.072 13.3144C236.901 13.0972 236.587 13.0593 236.37 13.2299L236.987 14.0164ZM240.683 9.84383C240.465 10.0144 240.428 10.3287 240.598 10.5459C240.769 10.7631 241.083 10.8009 241.3 10.6304L240.683 9.84383ZM245.613 7.24436C245.83 7.07383 245.868 6.75952 245.698 6.54232C245.527 6.32512 245.213 6.28728 244.995 6.45781L245.613 7.24436ZM249.308 3.07178C249.091 3.24231 249.053 3.55662 249.224 3.77382C249.394 3.99102 249.709 4.02886 249.926 3.85833L249.308 3.07178ZM254.239 0.47231C254.456 0.301786 254.494 -0.0125271 254.323 -0.229728C254.153 -0.446928 253.838 -0.484767 253.621 -0.314242L254.239 0.47231ZM257.934 -3.70027C257.717 -3.52974 257.679 -3.21543 257.85 -2.99823C258.02 -2.78103 258.334 -2.74319 258.552 -2.91371L257.934 -3.70027ZM87.5765 -4.60672L89.7329 -2.91371L90.3504 -3.70026L88.194 -5.39328L87.5765 -4.60672ZM94.0458 0.472311L98.3586 3.85833L98.9761 3.07178L94.6633 -0.314241L94.0458 0.472311ZM102.671 7.24436L106.984 10.6304L107.602 9.84383L103.289 6.4578L102.671 7.24436ZM111.297 14.0164L115.61 17.4024L116.228 16.6159L111.915 13.2299L111.297 14.0164ZM119.923 20.7885L124.236 24.1745L124.853 23.3879L120.54 20.0019L119.923 20.7885ZM128.549 27.5605L132.861 30.9465L133.479 30.16L129.166 26.7739L128.549 27.5605ZM137.174 34.3325L141.487 37.7186L142.105 36.932L137.792 33.546L137.174 34.3325ZM145.8 41.1046L150.113 44.4906L150.73 43.7041L146.417 40.318L145.8 41.1046ZM154.426 47.8766L158.738 51.2627L159.356 50.4761L155.043 47.0901L154.426 47.8766ZM163.051 54.6487L167.364 58.0347L167.982 57.2482L163.669 53.8621L163.051 54.6487ZM171.677 61.4207L173.833 63.1137L174.451 62.3272L172.295 60.6342L171.677 61.4207ZM174.451 63.1137L176.607 61.4207L175.99 60.6342L173.833 62.3272L174.451 63.1137ZM180.92 58.0347L185.233 54.6487L184.616 53.8621L180.303 57.2482L180.92 58.0347ZM189.546 51.2627L193.859 47.8766L193.241 47.0901L188.928 50.4761L189.546 51.2627ZM198.172 44.4906L202.485 41.1046L201.867 40.318L197.554 43.7041L198.172 44.4906ZM206.797 37.7186L211.11 34.3325L210.493 33.546L206.18 36.932L206.797 37.7186ZM215.423 30.9465L219.736 27.5605L219.118 26.7739L214.806 30.16L215.423 30.9465ZM224.049 24.1745L228.362 20.7885L227.744 20.0019L223.431 23.3879L224.049 24.1745ZM232.674 17.4024L236.987 14.0164L236.37 13.2299L232.057 16.6159L232.674 17.4024ZM241.3 10.6304L245.613 7.24436L244.995 6.45781L240.683 9.84383L241.3 10.6304ZM249.926 3.85833L254.239 0.47231L253.621 -0.314242L249.308 3.07178L249.926 3.85833ZM258.552 -2.91371L260.708 -4.60672L260.09 -5.39328L257.934 -3.70027L258.552 -2.91371Z" fill="url(#paint2_linear_103_2)"/>
<path d="M246.965 188.64L246.533 188.891C246.66 189.111 246.934 189.201 247.167 189.098L246.965 188.64ZM175.11 65.3923C175.248 65.6314 175.554 65.7131 175.793 65.5748C176.032 65.4366 176.114 65.1307 175.975 64.8917L175.11 65.3923ZM178.776 69.7347C178.638 69.4957 178.332 69.414 178.093 69.5522C177.854 69.6905 177.772 69.9963 177.911 70.2354L178.776 69.7347ZM180.712 75.0784C180.85 75.3175 181.156 75.3992 181.395 75.261C181.634 75.1227 181.716 74.8169 181.577 74.5778L180.712 75.0784ZM184.378 79.4209C184.24 79.1818 183.934 79.1001 183.695 79.2384C183.456 79.3766 183.374 79.6825 183.513 79.9215L184.378 79.4209ZM186.313 84.7646C186.452 85.0036 186.758 85.0853 186.997 84.9471C187.236 84.8088 187.317 84.503 187.179 84.2639L186.313 84.7646ZM189.98 89.107C189.842 88.868 189.536 88.7863 189.297 88.9245C189.058 89.0627 188.976 89.3686 189.114 89.6076L189.98 89.107ZM191.915 94.4507C192.053 94.6898 192.359 94.7715 192.598 94.6332C192.837 94.495 192.919 94.1891 192.781 93.9501L191.915 94.4507ZM195.582 98.7932C195.443 98.5541 195.138 98.4724 194.899 98.6106C194.66 98.7489 194.578 99.0547 194.716 99.2938L195.582 98.7932ZM197.517 104.137C197.655 104.376 197.961 104.458 198.2 104.319C198.439 104.181 198.521 103.875 198.383 103.636L197.517 104.137ZM201.184 108.479C201.045 108.24 200.739 108.159 200.5 108.297C200.261 108.435 200.18 108.741 200.318 108.98L201.184 108.479ZM203.119 113.823C203.257 114.062 203.563 114.144 203.802 114.006C204.041 113.867 204.123 113.561 203.984 113.322L203.119 113.823ZM206.785 118.165C206.647 117.926 206.341 117.845 206.102 117.983C205.863 118.121 205.781 118.427 205.92 118.666L206.785 118.165ZM208.721 123.509C208.859 123.748 209.165 123.83 209.404 123.692C209.643 123.553 209.724 123.248 209.586 123.008L208.721 123.509ZM212.387 127.852C212.249 127.613 211.943 127.531 211.704 127.669C211.465 127.807 211.383 128.113 211.521 128.352L212.387 127.852ZM214.322 133.195C214.461 133.434 214.766 133.516 215.005 133.378C215.245 133.24 215.326 132.934 215.188 132.695L214.322 133.195ZM217.989 137.538C217.851 137.299 217.545 137.217 217.306 137.355C217.067 137.493 216.985 137.799 217.123 138.038L217.989 137.538ZM219.924 142.881C220.062 143.12 220.368 143.202 220.607 143.064C220.846 142.926 220.928 142.62 220.79 142.381L219.924 142.881ZM223.591 147.224C223.452 146.985 223.147 146.903 222.908 147.041C222.668 147.18 222.587 147.485 222.725 147.724L223.591 147.224ZM225.526 152.568C225.664 152.807 225.97 152.888 226.209 152.75C226.448 152.612 226.53 152.306 226.392 152.067L225.526 152.568ZM229.192 156.91C229.054 156.671 228.748 156.589 228.509 156.727C228.27 156.866 228.189 157.172 228.327 157.411L229.192 156.91ZM231.128 162.254C231.266 162.493 231.572 162.574 231.811 162.436C232.05 162.298 232.132 161.992 231.993 161.753L231.128 162.254ZM234.794 166.596C234.656 166.357 234.35 166.275 234.111 166.414C233.872 166.552 233.79 166.858 233.929 167.097L234.794 166.596ZM236.729 171.94C236.868 172.179 237.174 172.261 237.413 172.122C237.652 171.984 237.733 171.678 237.595 171.439L236.729 171.94ZM240.396 176.282C240.258 176.043 239.952 175.961 239.713 176.1C239.474 176.238 239.392 176.544 239.53 176.783L240.396 176.282ZM242.331 181.626C242.469 181.865 242.775 181.947 243.014 181.808C243.253 181.67 243.335 181.364 243.197 181.125L242.331 181.626ZM245.998 185.968C245.86 185.729 245.554 185.648 245.315 185.786C245.076 185.924 244.994 186.23 245.132 186.469L245.998 185.968ZM249.675 187.993C249.928 187.882 250.042 187.587 249.931 187.334C249.82 187.081 249.525 186.967 249.272 187.078L249.675 187.993ZM254.288 184.869C254.035 184.98 253.92 185.275 254.032 185.528C254.143 185.781 254.438 185.895 254.691 185.784L254.288 184.869ZM259.707 183.575C259.96 183.463 260.074 183.168 259.963 182.915C259.852 182.663 259.556 182.548 259.304 182.659L259.707 183.575ZM264.32 180.45C264.067 180.561 263.952 180.857 264.064 181.109C264.175 181.362 264.47 181.477 264.723 181.365L264.32 180.45ZM269.739 179.156C269.991 179.045 270.106 178.75 269.995 178.497C269.883 178.244 269.588 178.13 269.336 178.241L269.739 179.156ZM274.352 176.032C274.099 176.143 273.984 176.438 274.096 176.691C274.207 176.943 274.502 177.058 274.755 176.947L274.352 176.032ZM279.771 174.737C280.023 174.626 280.138 174.331 280.027 174.078C279.915 173.826 279.62 173.711 279.368 173.822L279.771 174.737ZM284.383 171.613C284.131 171.724 284.016 172.019 284.127 172.272C284.239 172.525 284.534 172.64 284.787 172.528L284.383 171.613ZM289.803 170.319C290.055 170.208 290.17 169.913 290.059 169.66C289.947 169.407 289.652 169.292 289.399 169.404L289.803 170.319ZM294.415 167.194C294.163 167.306 294.048 167.601 294.159 167.854C294.271 168.106 294.566 168.221 294.818 168.11L294.415 167.194ZM299.834 165.9C300.087 165.789 300.202 165.494 300.09 165.241C299.979 164.989 299.684 164.874 299.431 164.985L299.834 165.9ZM304.447 162.776C304.195 162.887 304.08 163.182 304.191 163.435C304.303 163.688 304.598 163.802 304.85 163.691L304.447 162.776ZM309.866 161.482C310.119 161.37 310.234 161.075 310.122 160.823C310.011 160.57 309.716 160.455 309.463 160.567L309.866 161.482ZM314.479 158.357C314.226 158.469 314.112 158.764 314.223 159.016C314.334 159.269 314.63 159.384 314.882 159.273L314.479 158.357ZM319.898 157.063C320.151 156.952 320.266 156.657 320.154 156.404C320.043 156.151 319.748 156.037 319.495 156.148L319.898 157.063ZM324.511 153.939C324.258 154.05 324.144 154.345 324.255 154.598C324.366 154.851 324.661 154.965 324.914 154.854L324.511 153.939ZM329.93 152.645C330.183 152.533 330.297 152.238 330.186 151.986C330.075 151.733 329.78 151.618 329.527 151.73L329.93 152.645ZM334.543 149.52C334.29 149.632 334.176 149.927 334.287 150.179C334.398 150.432 334.693 150.547 334.946 150.435L334.543 149.52ZM339.962 148.226C340.215 148.115 340.329 147.82 340.218 147.567C340.107 147.314 339.812 147.2 339.559 147.311L339.962 148.226ZM344.575 145.102C344.322 145.213 344.208 145.508 344.319 145.761C344.43 146.014 344.725 146.128 344.978 146.017L344.575 145.102ZM173.709 62.9708L175.11 65.3923L175.975 64.8917L174.575 62.4701L173.709 62.9708ZM177.911 70.2354L180.712 75.0784L181.577 74.5778L178.776 69.7347L177.911 70.2354ZM183.513 79.9215L186.313 84.7646L187.179 84.2639L184.378 79.4209L183.513 79.9215ZM189.114 89.6076L191.915 94.4507L192.781 93.9501L189.98 89.107L189.114 89.6076ZM194.716 99.2938L197.517 104.137L198.383 103.636L195.582 98.7932L194.716 99.2938ZM200.318 108.98L203.119 113.823L203.984 113.322L201.184 108.479L200.318 108.98ZM205.92 118.666L208.721 123.509L209.586 123.008L206.785 118.165L205.92 118.666ZM211.521 128.352L214.322 133.195L215.188 132.695L212.387 127.852L211.521 128.352ZM217.123 138.038L219.924 142.881L220.79 142.381L217.989 137.538L217.123 138.038ZM222.725 147.724L225.526 152.568L226.392 152.067L223.591 147.224L222.725 147.724ZM228.327 157.411L231.128 162.254L231.993 161.753L229.192 156.91L228.327 157.411ZM233.929 167.097L236.729 171.94L237.595 171.439L234.794 166.596L233.929 167.097ZM239.53 176.783L242.331 181.626L243.197 181.125L240.396 176.282L239.53 176.783ZM245.132 186.469L246.533 188.891L247.398 188.39L245.998 185.968L245.132 186.469ZM247.167 189.098L249.675 187.993L249.272 187.078L246.764 188.183L247.167 189.098ZM254.691 185.784L259.707 183.575L259.304 182.659L254.288 184.869L254.691 185.784ZM264.723 181.365L269.739 179.156L269.336 178.241L264.32 180.45L264.723 181.365ZM274.755 176.947L279.771 174.737L279.368 173.822L274.352 176.032L274.755 176.947ZM284.787 172.528L289.803 170.319L289.399 169.404L284.383 171.613L284.787 172.528ZM294.818 168.11L299.834 165.9L299.431 164.985L294.415 167.194L294.818 168.11ZM304.85 163.691L309.866 161.482L309.463 160.567L304.447 162.776L304.85 163.691ZM314.882 159.273L319.898 157.063L319.495 156.148L314.479 158.357L314.882 159.273ZM324.914 154.854L329.93 152.645L329.527 151.73L324.511 153.939L324.914 154.854ZM334.946 150.435L339.962 148.226L339.559 147.311L334.543 149.52L334.946 150.435ZM344.978 146.017L347.486 144.912L347.083 143.997L344.575 145.102L344.978 146.017Z" fill="url(#paint3_linear_103_2)"/>
<path d="M246.86 191.66C246.897 191.934 247.148 192.127 247.422 192.09C247.695 192.054 247.888 191.803 247.852 191.529L246.86 191.66ZM248.633 197.438C248.597 197.164 248.346 196.972 248.072 197.008C247.798 197.044 247.605 197.295 247.642 197.569L248.633 197.438ZM248.423 203.478C248.459 203.752 248.71 203.944 248.984 203.908C249.258 203.872 249.45 203.621 249.414 203.347L248.423 203.478ZM250.195 209.256C250.159 208.982 249.908 208.789 249.634 208.826C249.36 208.862 249.168 209.113 249.204 209.387L250.195 209.256ZM249.985 215.296C250.021 215.57 250.273 215.762 250.546 215.726C250.82 215.69 251.013 215.438 250.977 215.165L249.985 215.296ZM251.758 221.074C251.722 220.8 251.47 220.607 251.197 220.643C250.923 220.68 250.73 220.931 250.767 221.205L251.758 221.074ZM251.548 227.113C251.584 227.387 251.835 227.58 252.109 227.544C252.383 227.507 252.575 227.256 252.539 226.982L251.548 227.113ZM253.32 232.891C253.284 232.618 253.033 232.425 252.759 232.461C252.485 232.497 252.293 232.749 252.329 233.022L253.32 232.891ZM253.11 238.931C253.146 239.205 253.398 239.398 253.671 239.361C253.945 239.325 254.138 239.074 254.102 238.8L253.11 238.931ZM254.883 244.709C254.847 244.435 254.595 244.243 254.322 244.279C254.048 244.315 253.855 244.566 253.891 244.84L254.883 244.709ZM254.673 250.749C254.709 251.023 254.96 251.215 255.234 251.179C255.508 251.143 255.7 250.892 255.664 250.618L254.673 250.749ZM256.445 256.527C256.409 256.253 256.158 256.06 255.884 256.097C255.61 256.133 255.418 256.384 255.454 256.658L256.445 256.527ZM256.235 262.567C256.271 262.841 256.523 263.033 256.796 262.997C257.07 262.961 257.263 262.709 257.226 262.436L256.235 262.567ZM258.008 268.345C257.971 268.071 257.72 267.878 257.446 267.914C257.173 267.951 256.98 268.202 257.016 268.476L258.008 268.345ZM257.798 274.385C257.834 274.658 258.085 274.851 258.359 274.815C258.633 274.778 258.825 274.527 258.789 274.253L257.798 274.385ZM259.57 280.162C259.534 279.889 259.283 279.696 259.009 279.732C258.735 279.768 258.543 280.02 258.579 280.293L259.57 280.162ZM259.36 286.202C259.396 286.476 259.647 286.669 259.921 286.632C260.195 286.596 260.388 286.345 260.351 286.071L259.36 286.202ZM261.133 291.98C261.096 291.706 260.845 291.514 260.571 291.55C260.298 291.586 260.105 291.837 260.141 292.111L261.133 291.98ZM246.47 188.706L246.86 191.66L247.852 191.529L247.461 188.575L246.47 188.706ZM247.642 197.569L248.423 203.478L249.414 203.347L248.633 197.438L247.642 197.569ZM249.204 209.387L249.985 215.296L250.977 215.165L250.195 209.256L249.204 209.387ZM250.767 221.205L251.548 227.113L252.539 226.982L251.758 221.074L250.767 221.205ZM252.329 233.022L253.11 238.931L254.102 238.8L253.32 232.891L252.329 233.022ZM253.891 244.84L254.673 250.749L255.664 250.618L254.883 244.709L253.891 244.84ZM255.454 256.658L256.235 262.567L257.226 262.436L256.445 256.527L255.454 256.658ZM257.016 268.476L257.798 274.385L258.789 274.253L258.008 268.345L257.016 268.476ZM258.579 280.293L259.36 286.202L260.351 286.071L259.57 280.162L258.579 280.293ZM260.141 292.111L260.532 295.066L261.523 294.935L261.133 291.98L260.141 292.111Z" fill="url(#paint4_linear_103_2)"/>
<path d="M88.1433 292.111C88.1795 291.837 87.9869 291.586 87.7131 291.55C87.4393 291.514 87.1881 291.706 87.1519 291.98L88.1433 292.111ZM87.9331 286.071C87.8969 286.345 88.0895 286.596 88.3633 286.632C88.637 286.669 88.8883 286.476 88.9245 286.202L87.9331 286.071ZM89.7057 280.293C89.7419 280.02 89.5493 279.768 89.2756 279.732C89.0018 279.696 88.7505 279.889 88.7143 280.162L89.7057 280.293ZM89.4956 274.253C89.4594 274.527 89.6519 274.778 89.9257 274.815C90.1995 274.851 90.4507 274.658 90.4869 274.385L89.4956 274.253ZM91.2682 268.476C91.3043 268.202 91.1118 267.951 90.838 267.914C90.5642 267.878 90.313 268.071 90.2768 268.345L91.2682 268.476ZM91.058 262.436C91.0218 262.709 91.2144 262.961 91.4882 262.997C91.7619 263.033 92.0132 262.841 92.0494 262.567L91.058 262.436ZM92.8306 256.658C92.8668 256.384 92.6742 256.133 92.4005 256.097C92.1267 256.06 91.8754 256.253 91.8392 256.527L92.8306 256.658ZM92.6205 250.618C92.5843 250.892 92.7768 251.143 93.0506 251.179C93.3244 251.215 93.5756 251.023 93.6118 250.749L92.6205 250.618ZM94.393 244.84C94.4292 244.566 94.2367 244.315 93.9629 244.279C93.6891 244.243 93.4379 244.435 93.4017 244.709L94.393 244.84ZM94.1829 238.8C94.1467 239.074 94.3393 239.325 94.6131 239.361C94.8868 239.398 95.1381 239.205 95.1743 238.931L94.1829 238.8ZM95.9555 233.022C95.9917 232.749 95.7991 232.497 95.5253 232.461C95.2516 232.425 95.0003 232.618 94.9641 232.891L95.9555 233.022ZM95.7453 226.982C95.7092 227.256 95.9017 227.507 96.1755 227.544C96.4493 227.58 96.7005 227.387 96.7367 227.113L95.7453 226.982ZM97.5179 221.205C97.5541 220.931 97.3616 220.68 97.0878 220.643C96.814 220.607 96.5628 220.8 96.5266 221.074L97.5179 221.205ZM97.3078 215.165C97.2716 215.438 97.4642 215.69 97.7379 215.726C98.0117 215.762 98.263 215.57 98.2992 215.296L97.3078 215.165ZM99.0804 209.387C99.1166 209.113 98.924 208.862 98.6502 208.826C98.3765 208.789 98.1252 208.982 98.089 209.256L99.0804 209.387ZM98.8702 203.347C98.8341 203.621 99.0266 203.872 99.3004 203.908C99.5742 203.944 99.8254 203.752 99.8616 203.478L98.8702 203.347ZM100.643 197.569C100.679 197.295 100.486 197.044 100.213 197.008C99.9389 196.972 99.6877 197.164 99.6515 197.438L100.643 197.569ZM100.433 191.529C100.396 191.803 100.589 192.054 100.863 192.09C101.137 192.127 101.388 191.934 101.424 191.66L100.433 191.529ZM87.7526 295.066L88.1433 292.111L87.1519 291.98L86.7613 294.935L87.7526 295.066ZM88.9245 286.202L89.7057 280.293L88.7143 280.162L87.9331 286.071L88.9245 286.202ZM90.4869 274.385L91.2682 268.476L90.2768 268.345L89.4956 274.253L90.4869 274.385ZM92.0494 262.567L92.8306 256.658L91.8392 256.527L91.058 262.436L92.0494 262.567ZM93.6118 250.749L94.393 244.84L93.4017 244.709L92.6205 250.618L93.6118 250.749ZM95.1743 238.931L95.9555 233.022L94.9641 232.891L94.1829 238.8L95.1743 238.931ZM96.7367 227.113L97.5179 221.205L96.5266 221.074L95.7453 226.982L96.7367 227.113ZM98.2992 215.296L99.0804 209.387L98.089 209.256L97.3078 215.165L98.2992 215.296ZM99.8616 203.478L100.643 197.569L99.6515 197.438L98.8702 203.347L99.8616 203.478ZM101.424 191.66L101.815 188.706L100.823 188.575L100.433 191.529L101.424 191.66Z" fill="url(#paint5_linear_103_2)"/>
<path d="M87.257 295L174.142 265.179" stroke="url(#paint6_linear_103_2)" stroke-width="2" stroke-linecap="round" stroke-linejoin="round"/>
<path d="M67.4112 79.7107L87.8852 -5" stroke="url(#paint7_linear_103_2)" stroke-width="2" stroke-linecap="round" stroke-linejoin="round"/>
<path d="M347.284 144.455L280.873 79.7107" stroke="url(#paint8_linear_103_2)" stroke-width="2" stroke-linecap="round" stroke-linejoin="round"/>
<path d="M87.257 295H261.027L347.284 144.455L260.399 -5H87.8852L1 144.455L87.257 295Z" stroke="url(#paint9_linear_103_2)" stroke-width="2" stroke-linecap="round" stroke-linejoin="round"/>
<path d="M260.399 -5L280.873 79.7107" stroke="url(#paint10_linear_103_2)" stroke-width="2" stroke-linecap="round" stroke-linejoin="round"/>
<path d="M67.4112 79.7107H280.873L174.142 265.179L67.4112 79.7107Z" stroke="url(#paint11_linear_103_2)" stroke-width="2" stroke-linecap="round" stroke-linejoin="round"/>
<path d="M261.027 295L174.142 265.179" stroke="url(#paint12_linear_103_2)" stroke-width="2" stroke-linecap="round" stroke-linejoin="round"/>
<path d="M1 144.455L67.4112 79.7107" stroke="url(#paint13_linear_103_2)" stroke-width="2" stroke-linecap="round" stroke-linejoin="round"/>
<defs>
<linearGradient id="paint0_linear_103_2" x1="87.5711" y1="62.7205" x2="87.5711" y2="188.64" gradientUnits="userSpaceOnUse">
<stop stop-color="#26EA3A"/>
<stop offset="1" stop-color="#8C72D5"/>
</linearGradient>
<linearGradient id="paint1_linear_103_2" x1="174.142" y1="188.64" x2="174.142" y2="189.64" gradientUnits="userSpaceOnUse">
<stop stop-color="#26EA3A"/>
<stop offset="1" stop-color="#8C72D5"/>
</linearGradient>
<linearGradient id="paint2_linear_103_2" x1="174.142" y1="-5" x2="174.142" y2="62.7205" gradientUnits="userSpaceOnUse">
<stop stop-color="#26EA3A"/>
<stop offset="1" stop-color="#8C72D5"/>
</linearGradient>
<linearGradient id="paint3_linear_103_2" x1="260.713" y1="62.7205" x2="260.713" y2="188.64" gradientUnits="userSpaceOnUse">
<stop stop-color="#26EA3A"/>
<stop offset="1" stop-color="#8C72D5"/>
</linearGradient>
<linearGradient id="paint4_linear_103_2" x1="253.996" y1="188.64" x2="253.996" y2="295" gradientUnits="userSpaceOnUse">
<stop stop-color="#26EA3A"/>
<stop offset="1" stop-color="#8C72D5"/>
</linearGradient>
<linearGradient id="paint5_linear_103_2" x1="94.288" y1="188.64" x2="94.288" y2="295" gradientUnits="userSpaceOnUse">
<stop stop-color="#26EA3A"/>
<stop offset="1" stop-color="#8C72D5"/>
</linearGradient>
<linearGradient id="paint6_linear_103_2" x1="130.7" y1="265.179" x2="130.7" y2="295" gradientUnits="userSpaceOnUse">
<stop stop-color="#26EA3A"/>
<stop offset="1" stop-color="#8C72D5"/>
</linearGradient>
<linearGradient id="paint7_linear_103_2" x1="77.6482" y1="-5" x2="77.6482" y2="79.7107" gradientUnits="userSpaceOnUse">
<stop stop-color="#26EA3A"/>
<stop offset="1" stop-color="#8C72D5"/>
</linearGradient>
<linearGradient id="paint8_linear_103_2" x1="314.079" y1="79.7107" x2="314.079" y2="144.455" gradientUnits="userSpaceOnUse">
<stop stop-color="#26EA3A"/>
<stop offset="1" stop-color="#8C72D5"/>
</linearGradient>
<linearGradient id="paint9_linear_103_2" x1="174.142" y1="-5" x2="174.142" y2="295" gradientUnits="userSpaceOnUse">
<stop stop-color="#26EA3A"/>
<stop offset="1" stop-color="#8C72D5"/>
</linearGradient>
<linearGradient id="paint10_linear_103_2" x1="270.636" y1="-5" x2="270.636" y2="79.7107" gradientUnits="userSpaceOnUse">
<stop stop-color="#26EA3A"/>
<stop offset="1" stop-color="#8C72D5"/>
</linearGradient>
<linearGradient id="paint11_linear_103_2" x1="174.142" y1="79.7107" x2="174.142" y2="265.179" gradientUnits="userSpaceOnUse">
<stop stop-color="#26EA3A"/>
<stop offset="1" stop-color="#8C72D5"/>
</linearGradient>
<linearGradient id="paint12_linear_103_2" x1="217.585" y1="265.179" x2="217.585" y2="295" gradientUnits="userSpaceOnUse">
<stop stop-color="#26EA3A"/>
<stop offset="1" stop-color="#8C72D5"/>
</linearGradient>
<linearGradient id="paint13_linear_103_2" x1="34.2056" y1="79.7107" x2="34.2056" y2="144.455" gradientUnits="userSpaceOnUse">
<stop stop-color="#26EA3A"/>
<stop offset="1" stop-color="#8C72D5"/>
</linearGradient>
</defs>
</svg>
