<?xml version="1.0" standalone="no"?>
<!DOCTYPE svg PUBLIC "-//W3C//DTD SVG 20010904//EN"
 "http://www.w3.org/TR/2001/REC-SVG-20010904/DTD/svg10.dtd">
<svg version="1.0" xmlns="http://www.w3.org/2000/svg"
 width="700.000000pt" height="700.000000pt" viewBox="0 0 700.000000 700.000000"
 preserveAspectRatio="xMidYMid meet">
<metadata>
Created by potrace 1.14, written by Peter Selinger 2001-2017
</metadata>
<g transform="translate(0.000000,700.000000) scale(0.100000,-0.100000)"
fill="#000000" stroke="none">
<path d="M0 3500 l0 -3500 3500 0 3500 0 0 2843 -1 2842 -667 657 -667 657
-2832 1 -2833 0 0 -3500z m3900 -140 l0 -1400 -179 0 -180 0 -3 493 c-2 302 3
734 14 1122 9 346 16 630 15 632 -2 1 -208 -503 -458 -1120 l-456 -1122 -144
0 -144 0 -455 1122 c-250 617 -456 1119 -458 1114 -1 -4 6 -291 16 -637 13
-438 17 -777 14 -1116 l-4 -488 -179 0 -179 0 0 1395 0 1395 238 0 238 0 454
-1135 c250 -624 456 -1135 459 -1135 4 0 211 511 461 1135 l454 1135 226 3
c124 1 231 3 238 5 9 2 12 -283 12 -1398z m2530 1245 l0 -155 -450 0 -450 0 0
-1252 0 -1251 -127 6 c-71 4 -154 7 -185 7 l-58 0 0 1245 0 1245 -445 0 -445
0 0 155 0 155 1080 0 1080 0 0 -155z"/>
</g>
</svg>
