<?xml version="1.0" standalone="no"?>
<!DOCTYPE svg PUBLIC "-//W3C//DTD SVG 20010904//EN"
 "http://www.w3.org/TR/2001/REC-SVG-20010904/DTD/svg10.dtd">
<svg version="1.0" xmlns="http://www.w3.org/2000/svg"
 width="1556.000000pt" height="1556.000000pt" viewBox="0 0 1556.000000 1556.000000"
 preserveAspectRatio="xMidYMid meet">
<metadata>
Created by potrace 1.14, written by Peter Selinger 2001-2017
</metadata>
<g transform="translate(0.000000,1556.000000) scale(0.100000,-0.100000)"
fill="#000000" stroke="none">
<path d="M1 8699 c0 -2481 3 -3178 12 -3172 9 5 9 4 0 -8 -9 -11 -11 -234 -10
-919 l2 -905 538 -2 537 -2 -3 70 c-1 38 1 69 6 69 4 0 5 4 2 10 -4 7 -7 197
-5 353 0 16 0 50 0 80 0 6 -1 50 -3 97 -1 47 1 100 4 118 4 17 4 32 0 32 -3 0
-6 25 -6 55 0 30 3 55 7 55 4 0 5 6 3 13 -9 22 -11 131 -4 165 4 17 4 32 0 32
-3 0 -6 25 -6 55 0 30 3 55 6 55 3 0 3 22 -1 48 -3 27 -4 62 -3 78 2 16 3 40
3 54 -5 106 -4 140 3 140 5 0 6 4 3 9 -5 7 -6 32 -6 121 0 8 0 53 0 100 0 85
-1 100 -3 198 -1 28 0 52 3 52 3 0 4 19 3 42 -3 58 -5 191 -3 203 2 6 1 15 0
20 -2 8 -1 62 1 118 1 19 0 218 -1 257 -1 19 -2 57 -4 83 -1 27 2 51 6 53 5 3
6 9 3 13 -4 7 -5 41 -5 134 0 9 0 51 0 92 0 41 0 81 0 88 1 19 -9 312 -10 312
-1 0 -3 74 -5 165 -13 455 -15 545 -20 660 -3 69 -6 142 -8 163 -1 20 2 37 8
37 7 0 7 3 0 8 -5 4 -11 50 -12 102 -5 273 -9 386 -16 398 -5 7 -3 12 3 12 6
0 9 4 6 9 -3 4 -8 102 -11 217 -8 299 -23 779 -25 779 0 0 -2 68 -4 151 -1 83
-6 155 -9 161 -4 7 -3 14 2 18 6 3 8 11 6 18 -6 14 -15 240 -10 235 2 -2 18
-39 35 -83 17 -44 38 -96 47 -115 25 -58 31 -73 44 -112 7 -20 17 -34 22 -31
6 3 7 1 3 -5 -3 -6 0 -26 8 -44 8 -18 21 -49 30 -70 9 -20 16 -40 16 -45 0 -4
6 -20 14 -35 8 -14 23 -50 34 -80 11 -29 30 -75 43 -103 12 -27 24 -58 26 -68
2 -10 9 -28 15 -40 7 -12 13 -24 14 -27 0 -3 4 -14 9 -25 4 -11 17 -42 27 -69
11 -27 27 -68 37 -90 10 -23 28 -68 41 -101 13 -33 26 -62 29 -65 5 -5 9 -17
15 -45 1 -5 12 -31 23 -56 12 -26 27 -64 34 -85 8 -22 16 -41 19 -44 3 -3 12
-24 20 -47 7 -24 17 -43 22 -43 5 0 7 -4 4 -8 -3 -5 1 -20 9 -35 7 -14 11 -28
7 -31 -3 -3 -1 -6 5 -6 5 0 10 -6 10 -12 1 -28 80 -207 89 -200 5 4 6 3 2 -2
-4 -5 -1 -24 7 -42 8 -19 14 -35 14 -37 0 -1 5 -15 12 -32 29 -74 48 -123 61
-155 7 -19 17 -38 21 -41 5 -3 9 -10 9 -15 1 -9 6 -29 16 -54 3 -8 4 -18 4
-22 -1 -5 3 -8 8 -8 6 0 10 -7 10 -15 0 -8 9 -34 19 -58 11 -23 35 -82 54
-132 20 -49 43 -108 53 -130 10 -22 18 -42 19 -45 1 -3 7 -18 13 -33 7 -16 12
-30 12 -31 0 -2 10 -25 22 -52 12 -27 23 -53 24 -59 1 -5 10 -28 19 -50 23
-53 38 -89 40 -95 1 -3 5 -14 10 -25 4 -11 28 -69 52 -130 24 -60 48 -119 53
-130 8 -17 30 -70 35 -85 1 -3 5 -14 9 -25 21 -55 32 -82 64 -155 47 -110 125
-306 125 -317 0 -7 4 -13 9 -13 4 0 7 -3 6 -7 -1 -5 4 -19 9 -33 19 -45 36
-85 38 -90 10 -31 35 -90 46 -112 5 -10 9 -25 9 -33 0 -8 5 -15 12 -15 6 0 9
-3 6 -6 -4 -3 5 -30 18 -60 13 -30 24 -56 25 -59 3 -22 34 -85 41 -85 5 0 7
-4 4 -9 -4 -5 -1 -22 6 -38 6 -15 11 -31 10 -35 -1 -5 3 -8 8 -8 6 0 10 -6 10
-14 0 -7 8 -31 17 -52 9 -22 17 -41 18 -44 3 -9 17 -44 36 -85 10 -23 21 -53
24 -68 4 -15 11 -27 16 -27 5 0 8 -3 7 -7 -3 -13 11 -53 59 -163 11 -25 35
-83 54 -130 18 -47 35 -87 38 -90 4 -3 7 -12 9 -20 4 -21 45 -124 51 -130 3
-3 8 -14 9 -25 2 -11 7 -22 10 -25 4 -3 8 -13 10 -22 1 -9 9 -29 17 -44 8 -15
12 -31 9 -36 -3 -4 0 -8 5 -8 6 0 11 -5 11 -10 0 -6 7 -27 17 -48 9 -20 17
-39 17 -42 6 -31 52 -127 60 -123 5 3 6 1 2 -5 -5 -9 9 -53 47 -142 6 -14 11
-27 12 -30 1 -3 6 -16 12 -30 6 -14 16 -42 24 -62 7 -21 17 -38 22 -38 4 0 6
-4 3 -8 -2 -4 1 -21 9 -37 20 -45 28 -69 27 -77 -1 -3 5 -12 13 -18 8 -7 15
-21 15 -31 0 -11 5 -27 10 -37 10 -18 90 -209 94 -227 1 -5 9 -26 18 -45 8
-19 27 -69 43 -110 16 -41 33 -80 38 -87 6 -9 114 -12 418 -12 l409 1 26 56
c15 31 27 62 29 67 2 9 18 52 32 85 3 8 7 17 8 20 1 3 7 19 15 35 34 79 40 94
40 107 0 8 4 18 9 24 9 8 70 155 75 179 2 6 11 28 20 50 42 92 75 175 78 195
2 8 5 17 8 20 6 5 40 87 55 130 3 8 25 62 39 95 28 63 75 183 78 196 2 8 5 16
8 19 8 7 84 204 81 209 -1 2 2 7 8 10 6 4 12 16 14 26 1 11 6 26 10 33 5 6 5
12 0 12 -4 0 -3 4 3 8 6 4 34 68 64 142 29 74 58 144 64 155 5 11 11 25 12 30
1 6 8 24 15 40 7 17 13 32 14 35 1 3 5 14 10 25 45 108 63 160 58 168 -3 6 -1
7 5 3 7 -4 14 4 18 21 4 15 14 44 23 63 8 19 15 37 16 40 1 3 6 16 12 30 6 14
19 45 28 70 9 25 23 59 30 75 37 84 61 142 64 157 1 4 18 45 37 90 20 46 37
88 38 93 2 6 9 24 16 40 7 17 14 32 15 35 1 3 9 22 18 44 9 21 17 42 17 47 0
5 4 17 10 27 17 31 50 111 50 121 0 6 9 26 20 46 11 19 19 36 19 38 -1 2 18
54 30 82 5 11 23 56 41 100 17 44 36 89 40 100 27 63 67 161 68 165 0 3 6 19
13 35 7 17 13 32 14 35 9 26 19 49 31 71 7 15 15 35 17 45 2 11 12 36 21 56 9
21 17 41 17 45 1 5 6 17 12 28 6 11 12 22 12 25 1 3 9 22 18 44 9 21 17 44 17
50 0 7 4 16 9 22 4 5 34 74 66 154 31 80 63 159 70 175 8 17 43 102 78 190 69
170 82 202 103 252 8 17 14 35 14 40 0 4 12 31 25 58 14 28 25 55 25 61 0 6
12 38 26 70 25 58 158 382 236 579 22 55 45 111 51 125 6 14 11 27 12 30 1 3
9 22 18 44 9 21 17 41 17 43 0 5 8 24 45 108 34 79 65 161 65 173 0 6 5 12 12
12 6 0 9 3 6 6 -3 3 12 47 34 97 22 51 41 99 43 107 6 28 67 165 77 175 8 7 9
6 5 -1 -4 -7 -9 -90 -12 -185 -2 -96 -7 -262 -10 -369 -4 -107 -8 -253 -10
-325 -12 -418 -17 -600 -19 -681 -1 -49 -6 -95 -9 -101 -4 -7 -3 -14 3 -18 6
-4 8 -10 6 -14 -3 -4 -8 -100 -11 -212 -3 -112 -8 -267 -10 -344 -3 -77 -8
-230 -11 -340 -3 -110 -8 -265 -11 -345 -3 -80 -8 -940 -10 -1912 l-4 -1768
541 0 540 0 0 2303 c1 2856 1 5776 0 5840 l0 47 -702 -2 -701 -3 -34 -85 c-18
-47 -37 -94 -42 -105 -10 -23 -23 -55 -27 -70 -3 -10 -118 -294 -133 -330 -11
-24 -23 -56 -27 -70 -2 -9 -19 -50 -54 -130 -5 -11 -95 -236 -199 -500 -105
-264 -196 -488 -201 -497 -6 -10 -10 -22 -10 -27 0 -4 -10 -30 -22 -57 -12
-27 -23 -51 -23 -54 -1 -3 -5 -14 -10 -25 -4 -11 -61 -155 -127 -320 -65 -165
-124 -311 -129 -325 -6 -14 -17 -38 -24 -55 -17 -39 -79 -199 -80 -205 -1 -3
-9 -22 -18 -44 -9 -21 -17 -40 -17 -43 0 -2 -8 -23 -18 -46 -20 -44 -106 -258
-108 -267 0 -3 -5 -16 -11 -30 -26 -61 -145 -356 -147 -365 -2 -5 -8 -21 -13
-35 -6 -14 -23 -56 -38 -95 -14 -38 -30 -77 -35 -86 -4 -8 -29 -69 -55 -135
-26 -65 -52 -130 -58 -144 -6 -14 -11 -27 -12 -30 -1 -3 -5 -14 -9 -25 -15
-37 -19 -50 -21 -55 -1 -3 -10 -23 -20 -45 -9 -22 -18 -44 -20 -50 -1 -5 -7
-21 -13 -35 -5 -14 -29 -72 -52 -130 -23 -58 -47 -111 -52 -117 -6 -7 -8 -13
-4 -13 3 0 -6 -26 -20 -57 -14 -32 -27 -62 -28 -68 -2 -5 -8 -23 -15 -40 -7
-16 -13 -38 -14 -47 -1 -10 -4 -18 -8 -18 -4 0 -12 -12 -17 -27 -6 -16 -22
-58 -36 -95 -13 -37 -32 -84 -41 -105 -9 -21 -23 -53 -31 -71 -8 -18 -14 -39
-14 -47 0 -8 -5 -15 -11 -15 -5 0 -8 -4 -5 -8 2 -4 -2 -21 -9 -37 -13 -28 -36
-83 -40 -95 -1 -3 -8 -21 -17 -40 -8 -19 -21 -53 -29 -75 -8 -22 -18 -43 -22
-46 -5 -3 -8 -8 -7 -10 2 -5 -4 -21 -44 -124 -16 -44 -31 -82 -32 -85 -1 -6
-31 -75 -50 -117 -8 -17 -14 -34 -14 -37 0 -4 -7 -23 -17 -44 -9 -20 -17 -39
-17 -42 -1 -3 -4 -10 -8 -16 -4 -6 -9 -22 -12 -36 -2 -14 -9 -34 -15 -44 -10
-17 -32 -70 -36 -84 0 -3 -6 -15 -13 -26 -6 -12 -8 -24 -5 -28 3 -3 1 -6 -6
-6 -7 0 -9 -4 -6 -10 3 -6 1 -10 -4 -10 -6 0 -10 -3 -9 -7 2 -5 -3 -24 -11
-43 -30 -82 -64 -168 -80 -205 -10 -22 -28 -68 -41 -102 -21 -55 -32 -67 -36
-45 -5 25 -17 52 -23 52 -4 0 -8 6 -9 13 -1 18 -7 38 -20 67 -5 14 -24 61 -42
105 -18 44 -38 94 -45 110 -7 17 -27 66 -44 110 -18 44 -36 89 -40 100 -45
106 -61 148 -61 160 0 7 -6 20 -13 27 -6 7 -13 20 -15 28 -1 8 -8 26 -14 40
-6 14 -14 34 -18 45 -5 11 -24 61 -44 110 -37 96 -57 147 -58 155 -1 3 -12 26
-25 51 -13 26 -23 52 -23 58 0 6 -4 19 -10 29 -5 9 -28 64 -51 122 -22 58 -46
116 -51 130 -6 14 -12 31 -14 39 -1 8 -8 17 -14 21 -7 4 -11 10 -10 14 4 15
-12 66 -21 66 -5 0 -8 3 -7 8 3 9 -42 134 -54 147 -4 5 -8 17 -8 27 0 10 -4
18 -10 18 -5 0 -9 3 -8 8 4 12 -33 112 -41 112 -4 0 -8 6 -8 13 0 6 -12 42
-26 79 -15 36 -27 71 -27 77 0 6 -4 11 -9 11 -5 0 -11 12 -14 28 -2 15 -21 65
-40 112 -46 111 -50 124 -49 132 1 3 -5 12 -13 18 -8 7 -15 21 -15 31 0 16
-23 75 -51 131 -5 10 -9 25 -9 33 0 8 -4 15 -8 15 -5 0 -14 23 -21 50 -7 28
-17 50 -22 50 -5 0 -8 3 -7 8 2 4 -7 32 -19 62 -41 101 -46 115 -47 120 -1 3
-9 26 -20 50 -10 25 -22 54 -26 65 -4 11 -17 41 -29 67 -12 26 -21 52 -21 56
0 5 -6 22 -14 38 -8 16 -34 81 -59 144 -25 63 -54 133 -63 155 -10 22 -18 42
-19 45 -2 14 -40 106 -44 110 -4 3 -7 12 -9 20 -1 8 -27 76 -58 150 -31 74
-61 151 -67 170 -6 19 -16 38 -22 42 -5 4 -6 8 -1 8 5 0 3 6 -3 13 -6 8 -12
22 -14 33 -1 10 -7 26 -12 34 -11 17 -34 76 -40 104 -3 11 -8 22 -12 25 -5 3
-9 13 -11 21 -1 8 -7 24 -12 35 -12 25 -31 78 -31 85 0 3 -7 15 -15 28 -8 12
-12 22 -9 22 3 0 -3 17 -14 39 -11 21 -17 41 -14 45 4 3 1 6 -5 6 -7 0 -12 6
-12 14 0 7 -8 31 -17 52 -9 22 -18 44 -19 49 -3 9 -107 268 -129 320 -4 11 -9
25 -11 30 -2 9 -181 454 -207 515 -6 14 -10 28 -9 33 1 4 -2 7 -8 7 -5 0 -7 7
-4 15 4 8 1 15 -5 15 -6 0 -11 8 -11 18 0 10 -3 22 -7 26 -4 3 -8 12 -9 19 -1
7 -13 38 -28 69 -14 31 -26 60 -26 63 0 4 -6 21 -14 38 -8 18 -26 64 -41 102
-15 39 -32 81 -38 95 -6 14 -11 27 -12 30 -1 3 -7 18 -13 33 -7 16 -12 33 -12
38 0 5 -4 9 -10 9 -5 0 -9 3 -8 8 2 8 -9 44 -27 87 -7 17 -22 55 -34 85 -27
68 -41 100 -52 122 -5 10 -9 23 -9 28 0 6 -9 30 -20 52 -11 23 -20 48 -20 55
0 7 -5 13 -12 13 -6 0 -9 3 -5 6 3 4 0 19 -9 35 l-14 29 -695 0 -694 -1 0
-3180z m213 -377 c3 -5 -1 -9 -9 -9 -8 0 -12 4 -9 9 3 4 7 8 9 8 2 0 6 -4 9
-8z m76 -158 c0 -8 -19 -13 -24 -6 -3 5 1 9 9 9 8 0 15 -2 15 -3z m-6 -82 c3
-5 -1 -9 -9 -9 -8 0 -12 4 -9 9 3 4 7 8 9 8 2 0 6 -4 9 -8z m161 -162 c3 -5 1
-10 -4 -10 -6 0 -11 5 -11 10 0 6 2 10 4 10 3 0 8 -4 11 -10z m-80 -149 c3 -5
2 -12 -3 -15 -5 -3 -9 1 -9 9 0 17 3 19 12 6z m82 -6 c0 -8 -4 -12 -9 -9 -5 3
-6 10 -3 15 9 13 12 11 12 -6z m83 -85 c0 -5 -2 -10 -4 -10 -3 0 -8 5 -11 10
-3 6 -1 10 4 10 6 0 11 -4 11 -10z m-5 -309 c3 -5 2 -12 -3 -15 -5 -3 -9 1 -9
9 0 17 3 19 12 6z m175 -87 c0 -8 -19 -13 -24 -6 -3 5 1 9 9 9 8 0 15 -2 15
-3z m65 -404 c3 -5 1 -10 -4 -10 -6 0 -11 5 -11 10 0 6 2 10 4 10 3 0 8 -4 11
-10z m160 -319 c3 -5 2 -12 -3 -15 -5 -3 -9 1 -9 9 0 17 3 19 12 6z m9 -79 c3
-5 -1 -9 -9 -9 -8 0 -12 4 -9 9 3 4 7 8 9 8 2 0 6 -4 9 -8z m-169 -82 c3 -5 1
-10 -4 -10 -6 0 -11 5 -11 10 0 6 2 10 4 10 3 0 8 -4 11 -10z m255 -316 c0 -8
-19 -13 -24 -6 -3 5 1 9 9 9 8 0 15 -2 15 -3z m-6 -82 c3 -5 -1 -9 -9 -9 -8 0
-12 4 -9 9 3 4 7 8 9 8 2 0 6 -4 9 -8z"/>
<path d="M9214 11435 l0 -445 1310 -2 1311 -3 0 -123 c0 -67 3 -122 7 -122 4
0 3 -13 -2 -30 -5 -17 -5 -32 0 -35 5 -3 5 -16 0 -30 -6 -15 -6 -27 0 -30 6
-3 6 -15 0 -30 -6 -15 -6 -27 0 -30 6 -3 6 -15 0 -30 -6 -15 -6 -27 0 -30 5
-3 7 -12 4 -20 -8 -20 -10 -375 -2 -375 4 0 3 -13 -2 -30 -5 -17 -5 -32 0 -35
5 -3 5 -16 0 -30 -6 -15 -6 -27 0 -30 6 -3 6 -15 0 -30 -6 -15 -6 -27 0 -30 6
-3 6 -15 0 -30 -6 -15 -6 -27 1 -30 5 -4 7 -11 3 -16 -8 -13 -8 -414 0 -427 3
-6 2 -13 -3 -17 -7 -3 -7 -15 -1 -30 6 -15 6 -27 0 -30 -6 -3 -6 -15 0 -30 6
-15 6 -27 0 -30 -6 -3 -6 -15 0 -30 6 -15 6 -27 0 -30 -6 -3 -6 -15 0 -30 6
-15 6 -27 0 -30 -6 -3 -6 -15 0 -30 6 -15 6 -27 0 -30 -6 -3 -6 -15 0 -30 6
-15 6 -27 0 -30 -6 -3 -6 -15 0 -30 6 -15 6 -27 0 -30 -6 -3 -6 -15 0 -30 6
-15 6 -27 -1 -30 -5 -4 -6 -11 -3 -17 4 -6 6 -30 5 -52 -6 -109 -5 -666 1
-666 4 0 3 -13 -2 -30 -5 -17 -5 -32 0 -35 5 -3 5 -16 0 -30 -6 -15 -6 -27 0
-30 6 -3 6 -15 0 -30 -6 -15 -6 -27 0 -30 6 -3 6 -15 0 -30 -6 -15 -6 -27 0
-30 5 -3 7 -12 4 -20 -8 -20 -10 -375 -2 -375 4 0 3 -13 -2 -30 -5 -17 -5 -32
0 -35 5 -3 5 -16 0 -30 -6 -15 -6 -27 0 -30 6 -3 6 -15 0 -30 -6 -15 -6 -27 0
-30 6 -3 6 -15 0 -30 -6 -15 -6 -27 1 -30 5 -4 7 -11 3 -16 -8 -13 -8 -414 0
-427 3 -6 2 -13 -3 -17 -7 -3 -7 -15 -1 -30 6 -15 6 -27 0 -30 -6 -3 -6 -15 0
-30 6 -15 6 -27 0 -30 -6 -3 -6 -15 0 -30 6 -15 6 -27 0 -30 -6 -3 -6 -15 0
-30 6 -15 6 -27 0 -30 -6 -3 -6 -15 0 -30 6 -15 6 -27 0 -30 -6 -3 -6 -15 0
-30 6 -15 6 -27 0 -30 -6 -3 -6 -15 0 -30 6 -15 6 -27 0 -30 -6 -3 -6 -15 0
-30 6 -15 6 -27 0 -30 -5 -3 -6 -16 -1 -28 8 -22 6 -75 -3 -84 -3 -3 -1 -15 4
-27 4 -13 5 -29 0 -36 -4 -7 -4 -26 0 -41 5 -16 6 -29 2 -29 -4 0 -7 -16 -7
-35 0 -19 4 -35 8 -35 5 0 5 -5 1 -11 -8 -13 -9 -467 -1 -476 4 -3 2 -13 -3
-22 -5 -10 -5 -23 0 -31 5 -8 5 -21 0 -30 -5 -9 -5 -22 0 -30 5 -8 5 -21 0
-30 -5 -9 -5 -22 -1 -28 4 -7 5 -35 1 -62 -4 -27 -3 -55 1 -62 4 -6 4 -19 -1
-28 -5 -9 -5 -22 0 -29 4 -8 4 -27 0 -42 -5 -16 -5 -29 0 -29 5 0 5 -13 0 -30
-5 -17 -5 -30 0 -30 5 0 5 -13 0 -30 -5 -17 -5 -30 0 -30 5 0 5 -13 0 -30 -5
-17 -5 -30 0 -30 5 0 5 -13 0 -30 -5 -16 -6 -30 -2 -30 8 0 7 -68 -1 -76 -3
-3 -2 -17 3 -30 6 -14 6 -26 0 -29 -5 -3 -6 -15 -1 -27 4 -12 5 -38 1 -59 -4
-21 -4 -43 1 -50 4 -7 4 -20 -1 -29 -5 -9 -5 -22 0 -29 4 -8 4 -27 0 -42 -5
-16 -5 -29 0 -29 5 0 5 -13 0 -30 -5 -17 -5 -30 0 -30 5 0 5 -13 0 -30 -5 -17
-5 -30 0 -30 5 0 5 -13 0 -30 -5 -17 -5 -30 0 -30 5 0 5 -13 0 -30 -5 -16 -6
-30 -2 -30 8 0 7 -68 -1 -76 -3 -3 -2 -17 3 -30 6 -14 6 -26 0 -29 -6 -3 -6
-15 0 -29 5 -13 7 -26 4 -29 -7 -7 -10 -107 -2 -107 4 0 3 -13 -2 -30 -5 -17
-5 -30 0 -30 5 0 5 -13 0 -30 -5 -17 -5 -30 0 -30 5 0 5 -13 0 -30 -5 -16 -6
-30 -2 -30 4 0 6 -18 6 -40 l-2 -40 537 0 536 0 0 3648 1 3647 1317 3 1317 2
-1 445 0 445 -3168 0 -3168 0 1 -445z"/>
</g>
</svg>
